
      <svg data-logo="logo" xmlns="http://www.w3.org/2000/svg" viewBox="0 0 145 42">
        <g id="logogram" transform="translate(0, 1) rotate(0) "><path d="M43 31L31 40H5L7 35L12 31H29L32 35L40 11L45 7H50L43 31ZM43 5L38 9H21L18 5L10 29L5 33H0L7 9L19 0H45L43 5ZM24 13H35L29 31L26 27H15L21 9L24 13Z" fill="#FFFFFF"/></g>
        <g id="logotype" transform="translate(56, 8)"><path fill="#ffffff" d="M17.64 26.38L17.64 26.38Q14.58 26.38 12.31 25.44Q10.05 24.50 8.79 22.65Q7.52 20.80 7.45 18.10L7.45 18.10L12.53 18.10Q12.63 19.39 13.30 20.25Q13.96 21.11 15.07 21.54Q16.19 21.97 17.59 21.97L17.59 21.97Q18.99 21.97 20.02 21.57Q21.06 21.16 21.64 20.43Q22.22 19.69 22.22 18.72L22.22 18.72Q22.22 17.85 21.70 17.26Q21.18 16.67 20.20 16.24Q19.23 15.81 17.83 15.49L17.83 15.49L15.02 14.79Q11.79 14.00 9.96 12.32Q8.14 10.64 8.14 7.87L8.14 7.87Q8.14 5.56 9.38 3.83Q10.61 2.11 12.78 1.15Q14.94 0.19 17.71 0.19L17.71 0.19Q20.53 0.19 22.63 1.16Q24.73 2.13 25.91 3.84Q27.09 5.56 27.12 7.80L27.12 7.80L22.08 7.80Q21.94 6.26 20.77 5.42Q19.60 4.59 17.66 4.59L17.66 4.59Q16.34 4.59 15.40 4.96Q14.46 5.34 13.96 6.00Q13.47 6.67 13.47 7.53L13.47 7.53Q13.47 8.47 14.04 9.09Q14.61 9.71 15.54 10.10Q16.48 10.48 17.55 10.74L17.55 10.74L19.86 11.30Q21.47 11.66 22.85 12.28Q24.23 12.89 25.28 13.79Q26.32 14.69 26.89 15.92Q27.46 17.15 27.46 18.75L27.46 18.75Q27.46 21.06 26.30 22.78Q25.14 24.50 22.94 25.44Q20.73 26.38 17.64 26.38ZM35.72 4.86L27.92 4.86L27.92 0.54L48.72 0.54L48.72 4.86L40.95 4.86L40.95 26L35.72 26L35.72 4.86ZM67.11 26L50.04 26L50.04 0.54L67.08 0.54L67.08 4.86L55.25 4.86L55.25 11.01L66.17 11.01L66.17 15.27L55.25 15.27L55.25 21.68L67.11 21.68L67.11 26ZM74.23 26L69.02 26L69.02 0.54L78.95 0.54Q81.86 0.54 83.89 1.64Q85.92 2.74 86.99 4.68Q88.06 6.62 88.06 9.13L88.06 9.13Q88.06 11.66 86.97 13.58Q85.89 15.51 83.83 16.59Q81.77 17.68 78.83 17.68L78.83 17.68L72.44 17.68L72.44 13.47L77.99 13.47Q79.60 13.47 80.63 12.92Q81.67 12.36 82.17 11.39Q82.68 10.41 82.68 9.13L82.68 9.13Q82.68 7.85 82.17 6.88Q81.67 5.90 80.63 5.37Q79.58 4.84 77.98 4.84L77.98 4.84L74.23 4.84L74.23 26Z"/></g>
        
      </svg>
    